<?xml version="1.0" encoding="UTF-8"?>
<!DOCTYPE svg PUBLIC "-//W3C//DTD SVG 1.1//EN" "http://www.w3.org/Graphics/SVG/1.1/DTD/svg11.dtd">
<!-- Creator: CorelDRAW -->
<svg xmlns="http://www.w3.org/2000/svg" xml:space="preserve" width="7.83333in" height="7.83333in" style="shape-rendering:geometricPrecision; text-rendering:geometricPrecision; image-rendering:optimizeQuality; fill-rule:evenodd; clip-rule:evenodd"
viewBox="0 0 7.83333 7.83333"
 xmlns:xlink="http://www.w3.org/1999/xlink">
 <defs>
  <style type="text/css">
   <![CDATA[
    .fil5 {fill:#7FC0B2}
    .fil2 {fill:#A7FFEB}
    .fil4 {fill:#C09A8E}
    .fil0 {fill:#F9AD71}
    .fil1 {fill:#FFCCBC}
    .fil3 {fill:#413B32;fill-rule:nonzero}
   ]]>
  </style>
 </defs>
 <g id="Layer_x0020_1">
  <metadata id="CorelCorpID_0Corel-Layer"/>
  <circle class="fil0" cx="3.91667" cy="3.91667" r="3.91667"/>
  <g id="_202998520">
   <path id="_203000872" class="fil1" d="M2.93924 2.53242l-1.37667 0c-0.0567008,0 -0.108193,0.0231457 -0.145476,0.0604331 -0.0372874,0.0372835 -0.0604331,0.0887795 -0.0604331,0.145476l0 2.34256c0,0.0566969 0.0231457,0.108193 0.0604331,0.145476 0.0372835,0.0372874 0.0887756,0.0604331 0.145476,0.0604331l0.0412362 0 0 0.652236c0,0.0360276 0.0292126,0.0652402 0.0652402,0.0652402 0.0222874,0 0.0419685,-0.011185 0.0537323,-0.0282402l0.580791 -0.689236 2.3846 0c0.0567008,0 0.108193,-0.0231457 0.145476,-0.0604331 0.0372874,-0.0372835 0.060437,-0.0887795 0.060437,-0.145476l0 -0.497457 0 -0.130476 0 -1.71463c0,-0.0566969 -0.0231496,-0.108193 -0.060437,-0.145476 -0.0372835,-0.0372874 -0.0887756,-0.0604331 -0.145476,-0.0604331l-1.61846 0 -0.130472 0z"/>
   <path id="_203000608" class="fil2" d="M3.06971 2.53242l1.61846 0c0.0567008,0 0.108193,0.0231457 0.145476,0.0604331 0.0372874,0.0372835 0.060437,0.0887795 0.060437,0.145476l0 1.71463 0 0.130476 0.635661 0 0.580791 0.689232c0.0117638,0.0170591 0.0314449,0.0282402 0.0537323,0.0282402 0.0360315,0 0.0652402,-0.0292087 0.0652402,-0.0652362l0 -0.652236 0.0412362 0c0.0567008,0 0.108193,-0.0231496 0.145476,-0.060437 0.0372874,-0.0372835 0.060437,-0.0887756 0.060437,-0.145472l0 -2.34256c0,-0.0567008 -0.0231496,-0.108193 -0.060437,-0.145476 -0.0372835,-0.0372874 -0.0887756,-0.060437 -0.145476,-0.060437l-3.1256 0c-0.0567008,0 -0.108193,0.0231496 -0.145476,0.060437 -0.0372874,0.0372835 -0.0604331,0.0887756 -0.0604331,0.145476l0 0.497453 0.130472 0z"/>
   <path id="_203001016" class="fil3" d="M3.14515 1.82906l3.1256 0c0.0567008,0 0.108193,0.0231496 0.145476,0.060437 0.0372874,0.0372835 0.060437,0.0887756 0.060437,0.145476l0 2.34256c0,0.0566969 -0.0231496,0.108189 -0.060437,0.145472 -0.0372835,0.0372874 -0.0887756,0.060437 -0.145476,0.060437l-0.0412362 0 0 0.652236c0,0.0360276 -0.0292087,0.0652362 -0.0652402,0.0652362 -0.0222874,0 -0.0419685,-0.0111811 -0.0537323,-0.0282402l-0.580791 -0.689232 -0.700902 0c-0.0360276,0 -0.0652362,-0.0292087 -0.0652362,-0.0652402l0 -1.77986c0,-0.0206772 -0.00850787,-0.0395236 -0.0222126,-0.0532244 -0.0136969,-0.0137008 -0.0325472,-0.0222087 -0.0532244,-0.0222087l-1.6837 0c-0.0360276,0 -0.0652362,-0.0292087 -0.0652362,-0.0652402l0 -0.562689c0,-0.0567008 0.0231457,-0.108193 0.0604331,-0.145476 0.0372835,-0.0372874 0.0887756,-0.060437 0.145476,-0.060437zm3.1256 0.130476l-3.1256 0c-0.0206772,0 -0.0395276,0.00850787 -0.0532244,0.0222126 -0.0137047,0.0136969 -0.0222126,0.0325472 -0.0222126,0.0532244l0 0.497453 1.61846 0c0.0567008,0 0.108193,0.0231457 0.145476,0.0604331 0.0372874,0.0372835 0.060437,0.0887795 0.060437,0.145476l0 1.71463 0.665598 0 0 3.93701e-006c0.018563,7.87402e-006 0.0369921,0.0078937 0.0498898,0.0231969l-0.0498898 0.0420354 0.0496929 -0.0417913 0.489657 0.581083 0 -0.539291c0,-0.0360276 0.0292087,-0.0652362 0.0652362,-0.0652362l0.106476 0c0.0206772,0 0.0395276,-0.00850787 0.0532244,-0.0222087 0.0137047,-0.0137008 0.0222126,-0.0325512 0.0222126,-0.0532244l0 -2.34256c0,-0.0206772 -0.00850787,-0.0395276 -0.0222126,-0.0532244 -0.0136969,-0.0137047 -0.0325472,-0.0222126 -0.0532244,-0.0222126z"/>
   <path id="_202999888" class="fil3" d="M4.68818 2.6629l-3.1256 0c-0.0206772,0 -0.0395276,0.00850787 -0.0532244,0.0222087 -0.0137047,0.0137008 -0.0222126,0.0325472 -0.0222126,0.0532244l0 2.34256c0,0.0206772 0.00850787,0.0395236 0.0222126,0.0532244 0.0136969,0.0137008 0.0325472,0.0222087 0.0532244,0.0222087l0.106476 0c0.0360276,0 0.0652362,0.0292087 0.0652362,0.0652402l0 0.539287 0.489657 -0.581083 0.0496929 0.0417953 -0.0498898 -0.0420394c0.0128976,-0.0153031 0.0313268,-0.023185 0.0498898,-0.0231969l0 -3.93701e-006 2.41454 0c0.0206772,0 0.0395276,-0.00850787 0.0532244,-0.0222087 0.0137047,-0.0137008 0.0222126,-0.0325472 0.0222126,-0.0532244l0 -2.34256c0,-0.0206772 -0.00850787,-0.0395236 -0.0222126,-0.0532244 -0.0136969,-0.0137008 -0.0325472,-0.0222087 -0.0532244,-0.0222087zm-3.1256 -0.130476l3.1256 0c0.0567008,0 0.108193,0.0231457 0.145476,0.0604331 0.0372874,0.0372835 0.060437,0.0887795 0.060437,0.145476l0 2.34256c0,0.0566969 -0.0231496,0.108193 -0.060437,0.145476 -0.0372835,0.0372874 -0.0887756,0.0604331 -0.145476,0.0604331l-2.3846 0 -0.580791 0.689236c-0.0117638,0.0170551 -0.0314449,0.0282402 -0.0537323,0.0282402 -0.0360276,0 -0.0652402,-0.0292126 -0.0652402,-0.0652402l0 -0.652236 -0.0412362 0c-0.0567008,0 -0.108193,-0.0231457 -0.145476,-0.0604331 -0.0372874,-0.0372835 -0.0604331,-0.0887795 -0.0604331,-0.145476l0 -2.34256c0,-0.0566969 0.0231457,-0.108193 0.0604331,-0.145476 0.0372835,-0.0372874 0.0887756,-0.0604331 0.145476,-0.0604331z"/>
   <path id="_203000416" class="fil4" d="M4.559 2.73833l0 2.34256c0,0.0265984 -0.00509449,0.0520551 -0.0143543,0.0754331l0.143531 0c0.0206772,0 0.0395276,-0.00850787 0.0532244,-0.0222087 0.0137047,-0.0137008 0.0222126,-0.0325472 0.0222126,-0.0532244l0 -0.562697 0 -1.77986c0,-0.0206772 -0.00850787,-0.0395236 -0.0222126,-0.0532244 -0.0136969,-0.0137008 -0.0325472,-0.0222087 -0.0532244,-0.0222087l-0.143531 0c0.00925984,0.023378 0.0143543,0.0488346 0.0143543,0.0754331z"/>
   <path id="_202999312" class="fil5" d="M4.83901 2.40485l-1.7693 0 0 0.127571 1.61846 0c0.0567008,0 0.108193,0.0231457 0.145476,0.0604331 0.0372874,0.0372835 0.060437,0.0887795 0.060437,0.145476l0 1.71463 0.150831 0 0 -1.8422c0,-0.0566969 -0.0231496,-0.108193 -0.060437,-0.145476 -0.0372835,-0.0372874 -0.0887756,-0.0604331 -0.145476,-0.0604331z"/>
  </g>
 </g>
</svg>
